<?xml version="1.0" encoding="utf-8"?>
<!-- Generator: Adobe Illustrator 16.0.0, SVG Export Plug-In . SVG Version: 6.00 Build 0)  -->
<!DOCTYPE svg PUBLIC "-//W3C//DTD SVG 1.1//EN" "http://www.w3.org/Graphics/SVG/1.1/DTD/svg11.dtd">
<svg version="1.1" xmlns="http://www.w3.org/2000/svg" xmlns:xlink="http://www.w3.org/1999/xlink" x="0px" y="0px" width="1280px"
	 height="800px" viewBox="0 0 1280 800" enable-background="new 0 0 1280 800" xml:space="preserve">
<g id="Layer_16">
	<rect x="99.5" y="75" fill="#0A153A" stroke="#000000" stroke-miterlimit="10" width="1089" height="453"/>
	<rect x="99.5" y="528" fill="#3D4354" stroke="#000000" stroke-miterlimit="10" width="1089" height="181"/>
	<rect x="99.5" y="528" fill="#2D323D" stroke="#000000" stroke-miterlimit="10" width="1089" height="41"/>
</g>
<g id="stars">
	<path opacity="0.8" fill="#7979F2" d="M167.895,154.437c0,0-0.747-11.147-7.966-10.97c0,0,7.564-0.482,7.111-12.578
		c0.287-1.352,1.151,11.606,7.811,11.293C168.088,142.499,167.45,146.367,167.895,154.437z"/>
	<path opacity="0.8" fill="#7979F2" d="M252.688,263.492c0,0-8.728,18.65,3.078,24.799c0,0-12.633-5.962-22.681,13.957
		c-1.667,1.926,8.484-19.751-2.54-25.18C241.737,282.582,246.214,276.91,252.688,263.492z"/>
	<path opacity="0.8" fill="#7979F2" d="M151.42,134.582c0,0,5.113-2.872,3.398-6.252c0,0,1.938,3.474,7.566,0.528
		c0.705-0.17-5.239,3.167-3.586,6.252C157.121,131.977,155.143,132.548,151.42,134.582z"/>
	<path opacity="0.8" fill="#7979F2" d="M454.597,262.711c0,0,0.299,11.168,7.52,11.281c0,0-7.577,0.179-7.61,12.283
		c-0.34,1.339-0.685-11.643-7.352-11.598C453.925,274.633,454.718,270.793,454.597,262.711z"/>
	<path opacity="0.8" fill="#7979F2" d="M470.263,283.211c0,0-5.224,2.664-3.646,6.111c0,0-1.797-3.55-7.539-0.832
		c-0.711,0.143,5.362-2.953,3.834-6.103C464.463,285.585,466.461,285.094,470.263,283.211z"/>
	<path opacity="0.8" fill="#7979F2" d="M1006.776,199.987c0,0,5.878,9.501,12.175,5.964c0,0-6.457,3.967-0.395,14.444
		c0.379,1.328-6.451-9.717-12.189-6.323C1012.193,210.627,1010.947,206.91,1006.776,199.987z"/>
	<path opacity="0.8" fill="#7979F2" d="M880.794,143.319c0,0-1.021-20.567-14.329-20.472c0,0,13.954-0.646,13.506-22.952
		c0.572-2.481,1.751,21.425,14.034,21.061C881.531,121.323,880.232,128.431,880.794,143.319z"/>
	<path opacity="0.8" fill="#7979F2" d="M1167.194,379.91c0,0-1.021-20.567-14.329-20.472c0,0,13.954-0.647,13.506-22.952
		c0.572-2.481,1.751,21.425,14.034,21.061C1167.932,357.915,1166.633,365.022,1167.194,379.91z"/>
	<path opacity="0.8" fill="#7979F2" d="M1030.628,209.819c0,0-3.173,4.931-0.075,7.116c0,0-3.338-2.164-6.933,3.075
		c-0.544,0.48,3.147-5.251,0.241-7.204C1026.813,214.79,1028.291,213.359,1030.628,209.819z"/>
	<path opacity="0.8" fill="#7979F2" d="M702.743,238.536c0,0-5.493-9.729-11.926-6.448c0,0,6.612-3.706,0.975-14.417
		c-0.326-1.343,6.057,9.967,11.926,6.806C697.756,227.688,698.854,231.451,702.743,238.536z"/>
	<path opacity="0.8" fill="#7979F2" d="M679.304,227.756c0,0,3.369-4.801,0.36-7.108c0,0,3.249,2.295,7.051-2.794
		c0.562-0.458-3.354,5.121-0.53,7.188C683.316,222.943,681.781,224.313,679.304,227.756z"/>
</g>
<g id="backbuilding">
	<g>
		<path fill="#2A1447" d="M100,435.5h154v-119h220.697l56.386-57.825c0,0,67.927-26.462,64.531,32.651
			c-3.396,59.115,0.123,117.99,0.123,117.99s224.038,28.762,234.228-54.092s-43.185-222.271,88.307-25.09
			c131.49,197.182,108.851,61.365,163.187,61.365c54.337,0,107.542,0,107.542,0v136H100V435.5z"/>
		<path fill="#2A1447" d="M1126.015,406.192c22.188-0.226,40.244,6.433,40.331,14.87c0.086,8.44-17.831,15.466-40.019,15.694
			c-22.187,0.225-40.242-6.434-40.329-14.872C1085.911,413.445,1103.829,406.42,1126.015,406.192z"/>
		<circle fill="#2A1447" cx="282.194" cy="342.034" r="12.809"/>
		<circle fill="#2A1447" cx="858.39" cy="335.242" r="12.809"/>
	</g>
	<g>
		<path fill="#2A1447" d="M100,435.5h154v-119h220.697l56.386-57.825c0,0,67.927-26.462,64.531,32.651
			c-3.396,59.115,0.123,117.99,0.123,117.99s224.038,28.762,234.228-54.092s-43.185-222.271,88.307-25.09
			c131.49,197.182,108.851,61.365,163.187,61.365c54.337,0,107.542,0,107.542,0v136H100V435.5z"/>
		<path fill="#512991" d="M1126.015,406.192c22.188-0.226,40.244,6.433,40.331,14.87c0.086,8.44-17.831,15.466-40.019,15.694
			c-22.187,0.225-40.242-6.434-40.329-14.872C1085.911,413.445,1103.829,406.42,1126.015,406.192z"/>
		<circle fill="#512991" cx="282.194" cy="342.034" r="12.809"/>
		<circle fill="#512991" cx="858.39" cy="335.242" r="12.809"/>
	</g>
</g>
<g id="backlights">
	<circle fill="#512991" cx="558.048" cy="291.45" r="23.354"/>
	
		<ellipse transform="matrix(0.8161 0.578 -0.578 0.8161 383.9656 -422.407)" fill="#512991" cx="855.622" cy="392.041" rx="15.282" ry="40.177"/>
	<circle fill="#512991" cx="282.234" cy="449.611" r="12.849"/>
</g>
<g id="frontbuilding">
	<path fill="#4B277A" d="M1049.452,322.5c-2.274-18-17.228-31.021-35.349-31.021S981.029,304.5,978.755,322.5H978v205h72v-205
		H1049.452z"/>
	<path fill="#4B277A" d="M223.228,414.5c-3.087-9-23.373-17.08-47.959-17.08c-24.585,0-44.872,8.08-47.959,17.08H127v113h98v-113
		H223.228z"/>
	<path fill="#3F1B66" d="M475.83,183.5h-64.525h-81.505h-62.261c-7.502,0-13.539,5.755-13.539,13.258v37.356
		c0,7.502,6.036,13.386,13.539,13.386H316v126.984v139.238V527.5h13.799h81.505H425v-13.777V374.484V247.5h50.83
		c7.502,0,13.17-5.883,13.17-13.386v-37.356C489,189.255,483.332,183.5,475.83,183.5z"/>
	<path fill="#4D297C" d="M551.675,343.5h-40.753c-3.751,0-6.922,3.854-6.922,7.849V422.5H391v105h119.922h40.753H558v-7.424v-98.047
		v-70.681C558,347.354,555.426,343.5,551.675,343.5z"/>
	<path fill="#3F1B66" d="M644,534.5V383.541l43.267-45.281l40.878-133.578c0,0,20.607-113.202,38.72,0S792,381.276,792,381.276
		V534.5H644z"/>
	<circle fill="#744DB2" cx="709.108" cy="363.48" r="7.923"/>
	<circle fill="#744DB2" cx="541.57" cy="386.121" r="7.922"/>
	<circle fill="#512991" cx="489.497" cy="440.458" r="7.922"/>
	<path fill="#744DB2" d="M447.045,495.078c0,12.659-10.261,22.92-22.92,22.92c-12.663,0-22.923-10.261-22.923-22.92
		c0-12.66,10.26-22.923,22.923-22.923C436.784,472.155,447.045,482.418,447.045,495.078z"/>
	<circle fill="#512991" cx="409.124" cy="391.781" r="7.922"/>
	<circle fill="#744DB2" cx="453.57" cy="215.484" r="14.125"/>
	<circle fill="#512991" cx="176.226" cy="462.265" r="14.125"/>
	<path fill="#512991" d="M767.972,315.37c0,14.689-12.16,26.601-27.165,26.601c-15.007,0-27.169-11.911-27.169-26.601
		c0-14.69,12.162-26.602,27.169-26.602C755.812,288.769,767.972,300.68,767.972,315.37z"/>
	<ellipse fill="#512991" cx="682.612" cy="409.064" rx="16.518" ry="35.605"/>
</g>
<g id="frontlights">
	<circle fill="#744DB2" cx="1014.292" cy="327.717" r="16.518"/>
	<circle fill="#744DB2" cx="521.194" cy="363.48" r="7.923"/>
	<circle fill="#744DB2" cx="343.765" cy="323.025" r="14.125"/>
</g>
<g id="table">
	<rect x="837" y="586.5" fill="#A8A1B7" width="40" height="122"/>
	<path fill="#A8A1B7" d="M876.249,431.37c-5.658-13.95-20.789-25.268-34.744-25.268l-412.716-0.796
		c-13.955,0-24.565,0.796-30.533,26.063l-34.408,117.262c-1.968,25.114,11.938,37.868,25.893,37.868h507.566
		c13.955,0,26.067-17.872,21.154-41.034L876.249,431.37z"/>
	<rect x="407" y="586.5" fill="#A8A1B7" width="39" height="122"/>
	<rect x="437" y="586.5" fill="#6C6977" width="9" height="122"/>
	<rect x="837" y="586.5" fill="#6C6977" width="9" height="122"/>
	<rect x="407" y="586.5" fill="#CECAD8" width="22" height="122"/>
	<rect x="407" y="586.5" opacity="0.5" fill="#3B4B59" width="39" height="20"/>
	<rect x="855" y="586.5" fill="#CECAD8" width="22" height="122"/>
	<path fill="#E0D9ED" d="M872.906,417.452c-5.564-13.604-20.444-24.643-34.167-24.643l-405.858-0.775
		c-13.722,0-24.156,0.775-30.025,25.418l-37.272,125.835c-9.662,24.643,23.55,25.213,37.272,25.213h490.758
		c13.723,0,29.68-0.57,24.848-23.16L872.906,417.452z"/>
	<rect x="837" y="586.5" opacity="0.5" fill="#3B4B59" width="40" height="20"/>
</g>
<g id="laptop">
	<path fill="#31425B" d="M745,402.665c0,6.536-5.299,11.835-11.835,11.835h-190.33c-6.536,0-11.835-5.299-11.835-11.835v-110.33
		c0-6.536,5.299-11.835,11.835-11.835h190.33c6.536,0,11.835,5.299,11.835,11.835V402.665z"/>
	<path fill="#23303F" d="M733.187,280.5H726v134h7.187c6.535,0,11.813-5.259,11.813-11.795V292.25
		C745,285.715,739.722,280.5,733.187,280.5z"/>
	<path fill="#64A6F4" d="M737,395.478c0,6.537-4.974,12.022-11.509,12.022H552.188c-6.535,0-12.188-5.485-12.188-12.022v-94.06
		c0-6.536,5.653-11.918,12.188-11.918h173.303c6.535,0,11.509,5.382,11.509,11.918V395.478z"/>
	<path fill="#435D7C" d="M751.925,425.882c-2.651-6.534-9.737-11.835-16.273-11.835l-193.296-0.373
		c-6.535,0-11.505,0.373-14.3,12.208l-17.751,59.972c-4.602,11.834,11.216,11.646,17.751,11.646h233.73
		c6.536,0,14.136,0.188,11.835-10.66L751.925,425.882z"/>
	<path fill="#31425B" d="M751.925,490.11c-2.651-0.744-9.737-1.348-16.273-1.348l-193.296-0.042c-6.535,0-11.505,0.042-14.3,1.39
		l-18.578-1.007c-0.793,8.83,12.043,8.396,18.578,8.396h233.73c12.255,0,12.108-3.818,12.108-8.504L751.925,490.11z"/>
	<path fill="#3E5666" d="M773.621,486.84l-21.696-61.175c-2.651-6.535-9.737-11.728-16.273-11.728l-193.296-0.318
		c-0.689,0-1.36,0.033-2.015,0.055l179.532,0.359c6.535,0,13.622,5.307,16.271,11.843l21.697,60.959
		c2.301,10.849-5.3,10.665-11.835,10.665h15.779C768.322,497.5,775.922,497.688,773.621,486.84z"/>
	<path fill="#23303F" d="M773.895,488.996l-15.67,0.27c0.572,8.244-6.263,8.234-12.218,8.234h15.779
		C774.041,497.5,773.895,493.682,773.895,488.996z"/>
	<path fill="#31425B" d="M740.726,424.401c-2.294-3.014-2.019-4.638-7.676-4.638l-186.277-0.172c-5.657,0-5.501-0.401-7.92,5.058
		l-7.335,29.218c-1.905,5.459,7.179,5.633,12.836,5.633h202.335c5.658,0,7.032,0.027,5.04-4.975L740.726,424.401z"/>
	<path fill="#3E5666" d="M614.737,497.272c0.62,0.701,0.546,1.078,2.078,1.078l50.426,0.041c1.531,0,1.489,0.094,2.144-1.176
		l1.985-7.1c0.516-1.271-1.943-1.616-3.475-1.616h-54.771c-1.532,0-1.904,0.298-1.365,1.461L614.737,497.272z"/>
	<path fill="#4485E2" d="M725.297,289.5H716v117h9.297c6.535,0,11.703-5.149,11.703-11.685v-93.689
		C737,294.59,731.832,289.5,725.297,289.5z"/>
</g>
<g id="textlaptop">
	<path fill="#F9F9F9" d="M575,301.063c0,2.451-1.987,4.438-4.438,4.438h-14.124c-2.451,0-4.438-1.986-4.438-4.438v-0.125
		c0-2.451,1.987-4.438,4.438-4.438h14.124c2.451,0,4.438,1.986,4.438,4.438V301.063z"/>
	<path fill="#F9F9F9" d="M575,364.063c0,2.451-1.987,4.438-4.438,4.438h-14.124c-2.451,0-4.438-1.986-4.438-4.438v-0.125
		c0-2.451,1.987-4.438,4.438-4.438h14.124c2.451,0,4.438,1.986,4.438,4.438V364.063z"/>
	<path fill="#F9F9F9" d="M595,333.063c0,2.451-1.987,4.438-4.438,4.438h-34.123c-2.451,0-4.438-1.986-4.438-4.438v-0.125
		c0-2.451,1.987-4.438,4.438-4.438h34.123c2.451,0,4.438,1.986,4.438,4.438V333.063z"/>
	<path fill="#F9F9F9" d="M595,379.062c0,2.451-1.987,4.438-4.438,4.438h-34.123c-2.451,0-4.438-1.987-4.438-4.438v-0.123
		c0-2.451,1.987-4.438,4.438-4.438h34.123c2.451,0,4.438,1.987,4.438,4.438V379.062z"/>
	<path fill="#F9F9F9" d="M620,317.063c0,2.451-1.986,4.438-4.438,4.438h-59.125c-2.451,0-4.438-1.986-4.438-4.438v-0.125
		c0-2.451,1.987-4.438,4.438-4.438h59.125c2.451,0,4.438,1.986,4.438,4.438V317.063z"/>
	<path fill="#F9F9F9" d="M620,394.062c0,2.451-1.986,4.438-4.438,4.438h-59.125c-2.451,0-4.438-1.987-4.438-4.438v-0.123
		c0-2.451,1.987-4.438,4.438-4.438h59.125c2.451,0,4.438,1.987,4.438,4.438V394.062z"/>
	<path fill="#F9F9F9" d="M620,348.063c0,2.451-1.986,4.438-4.438,4.438h-59.125c-2.451,0-4.438-1.986-4.438-4.438v-0.125
		c0-2.451,1.987-4.438,4.438-4.438h59.125c2.451,0,4.438,1.986,4.438,4.438V348.063z"/>
</g>
<g id="circlelaptop1">
	<g>
		<circle fill="#F9F9F9" cx="603.007" cy="378.543" r="4.438"/>
		<circle fill="#F9F9F9" cx="615.828" cy="378.543" r="4.438"/>
		<circle fill="#F9F9F9" cx="603.007" cy="332.191" r="4.438"/>
		<circle fill="#F9F9F9" cx="596.104" cy="300.633" r="4.438"/>
		<circle fill="#F9F9F9" cx="583.283" cy="300.633" r="4.438"/>
	</g>
	<g>
		<circle fill="#F9F9F9" cx="603.007" cy="378.543" r="4.438"/>
		<circle fill="#F9F9F9" cx="615.828" cy="378.543" r="4.438"/>
		<circle fill="#F9F9F9" cx="603.007" cy="332.191" r="4.438"/>
		<circle fill="#F9F9F9" cx="596.104" cy="300.633" r="4.438"/>
		<circle fill="#F9F9F9" cx="583.283" cy="300.633" r="4.438"/>
	</g>
</g>
<g id="circlelaptop2">
	<circle fill="#F9F9F9" cx="628.649" cy="316.412" r="4.438"/>
	<circle fill="#F9F9F9" cx="581.311" cy="363.75" r="4.438"/>
	<circle fill="#F9F9F9" cx="641.469" cy="393.336" r="4.438"/>
	<circle fill="#F9F9F9" cx="628.649" cy="393.336" r="4.438"/>
</g>
<g id="light">
	<path opacity="0.3" fill="#F2E8BB" d="M833.177,459.386L833.177,459.386l-160.888-279.4c-0.046-0.254-0.072-0.51-0.137-0.761
		c-4.007-15.743-44.105-19.126-89.562-7.557c-45.457,11.57-79.06,33.71-75.053,49.453l-63.141,241.064
		c-1.292,2.717-2.024,5.489-2.176,8.308l-0.353,1.346l0.319-0.01c0.42,34.413,88.621,62.271,197.373,62.271
		c109.011,0,197.383-27.989,197.383-62.518C836.943,467.407,835.641,463.33,833.177,459.386z"/>
</g>
<g id="lamp">
	<path fill="#494482" d="M441.35,191.319c-0.051,0.04-0.098,0.08-0.147,0.121l0.17,0.218L185.346,377.203l6.419,10.563
		c-4.926,3.986-6.466,10.666-3.152,14.877c3.314,4.211,13.996,7.054,18.594,3.409l3.255,5.4L453.105,206.94l0.106-0.055
		c0.051-0.038,0.156-0.1,0.206-0.139c5.051-3.976,6.458-10.659,3.11-14.911C453.18,187.583,446.399,187.345,441.35,191.319z"/>
	<path opacity="0.8" fill="#7B7AC1" d="M199.062,395.198l-6.923-11.203L446.84,197.499l1.659,1.374
		c0.05-0.041,0.096-0.081,0.147-0.121c3.182-2.504,7.12-3.242,10.492-2.313c-0.325-1.232-0.881-2.406-1.704-3.451
		c-3.57-4.536-10.53-5.002-15.58-1.028c-0.051,0.04-0.097,0.08-0.147,0.121l0.182,0.232l-256.542,184.89l6.923,11.203
		c-4.923,3.99-6.287,10.895-2.752,15.385c1.128,1.433,3.025,2.742,5.229,3.746C193.501,403.363,195.155,398.365,199.062,395.198z"/>
	
		<ellipse transform="matrix(0.9752 -0.2213 0.2213 0.9752 -25.8872 134.5502)" fill="#302F5E" cx="587.506" cy="182.801" rx="89.571" ry="52.182"/>
	<path fill="#1F1F3D" d="M674.856,162.978c-5.195-22.898-35.554-36.368-72.713-34.654c31.319,1.491,55.659,14.375,60.261,34.654
		c6.378,28.105-27.561,59.763-75.803,70.711c-8.938,2.028-17.737,3.199-26.187,3.588c12.085,0.575,25.207-0.54,38.639-3.588
		C647.297,222.741,681.234,191.083,674.856,162.978z"/>
	<g>
		<path fill="#494482" d="M662.476,165.3c-0.031-0.168-0.084-0.33-0.12-0.497c-8.191-40.538-47.965-67.002-89.365-59.215
			c-41.4,7.787-68.841,46.893-61.744,87.637c0.027,0.168,0.037,0.338,0.068,0.505c0.011,0.057,0.029,0.109,0.041,0.166
			c0.021,0.112,0.033,0.224,0.054,0.336c0.035,0.185,0.082,0.365,0.118,0.55l0.04-0.007c4.909,19.85,41.303,29.67,82.327,21.954
			c41.023-7.716,71.362-30.088,68.725-50.365l0.041-0.008c-0.034-0.185-0.056-0.371-0.09-0.556
			c-0.022-0.112-0.051-0.221-0.072-0.332C662.488,165.412,662.486,165.355,662.476,165.3z"/>
	</g>
	<path fill="#313059" d="M662.619,166.364l0.041-0.008c-0.034-0.185-0.056-0.371-0.09-0.556c-0.022-0.112-0.051-0.221-0.072-0.332
		c-0.01-0.057-0.012-0.113-0.022-0.168c-0.031-0.168-0.084-0.33-0.12-0.497c-8.191-40.538-47.965-67.002-89.365-59.215
		c-3.926,0.739-7.726,1.762-11.383,3.038c40.6-6.46,79.119,19.754,87.165,59.573c0.035,0.167,0.089,0.328,0.119,0.497
		c0.012,0.056,0.014,0.112,0.023,0.168c0.021,0.112,0.05,0.221,0.072,0.332c0.034,0.185,0.055,0.371,0.089,0.556l-0.04,0.008
		c2.286,17.571-20.2,36.708-52.935,46.526C635.996,208.195,665.209,186.274,662.619,166.364z"/>
	<path fill="#494482" d="M676.223,175.175l0.047-0.01c-0.039-0.224-0.063-0.448-0.102-0.672c-0.025-0.135-0.059-0.266-0.082-0.401
		c-0.011-0.068-0.015-0.137-0.026-0.204c-0.035-0.203-0.097-0.398-0.138-0.6c-0.231-1.216-0.504-2.413-0.779-3.607
		c-2.601,22.849-35.708,46.551-79.266,55.229c-47.278,9.42-89.188-2.379-94.802-26.373l-0.046,0.009
		c-0.042-0.224-0.096-0.441-0.136-0.665c-0.024-0.136-0.038-0.271-0.062-0.406c-0.013-0.067-0.034-0.131-0.047-0.2
		c-0.035-0.203-0.046-0.408-0.077-0.611c-0.042-0.261-0.067-0.52-0.108-0.781c0.14,4.009,0.511,8.047,1.177,12.102
		c0.031,0.203,0.042,0.408,0.077,0.61c0.012,0.069,0.033,0.133,0.047,0.2c0.023,0.136,0.038,0.271,0.062,0.406
		c0.04,0.224,0.094,0.441,0.136,0.665l0.046-0.009c5.615,23.994,47.523,35.793,94.802,26.373S679.22,199.691,676.223,175.175z"/>
	<g>
		<path fill="#7B7AC1" d="M501.854,208.596c0.012,0.069,0.033,0.133,0.047,0.2c0.023,0.136,0.038,0.271,0.062,0.406
			c0.04,0.224,0.094,0.441,0.136,0.665l0.046-0.009c1.116,4.769,3.686,9.047,7.427,12.782c17.749,9.015,45.822,11.703,76.118,5.667
			c9.015-1.796,17.571-4.243,25.512-7.186c-4.932,1.463-10.049,2.739-15.323,3.79c-47.278,9.42-89.188-2.379-94.802-26.373
			l-0.046,0.009c-0.042-0.224-0.096-0.441-0.136-0.665c-0.024-0.136-0.038-0.271-0.062-0.406c-0.013-0.067-0.034-0.131-0.047-0.2
			c-0.035-0.203-0.046-0.408-0.077-0.611c-0.042-0.261-0.067-0.52-0.108-0.781c0.14,4.009,0.511,8.047,1.177,12.102
			C501.807,208.188,501.818,208.394,501.854,208.596z"/>
		<path fill="#313059" d="M676.223,175.175l0.047-0.01c-0.039-0.224-0.063-0.448-0.102-0.672c-0.025-0.135-0.059-0.266-0.082-0.401
			c-0.011-0.068-0.015-0.137-0.026-0.204c-0.035-0.203-0.097-0.398-0.138-0.6c-0.231-1.216-0.504-2.413-0.779-3.607
			c-0.804,7.058-4.524,14.195-10.557,20.947c-5.591,16.027-25.269,31.763-52.134,41.75
			C651.636,220.706,678.882,196.921,676.223,175.175z"/>
	</g>
	
		<ellipse transform="matrix(0.5515 -0.8342 0.8342 0.5515 117.9937 510.9053)" fill="#7B7AC1" cx="534.109" cy="145.725" rx="16.479" ry="7.007"/>
	<path fill="#494482" d="M515.096,182.765l-0.038,0.013c-0.06-0.09-0.128-0.175-0.187-0.266c-0.035-0.055-0.062-0.111-0.096-0.167
		c-0.019-0.028-0.044-0.051-0.062-0.079c-0.053-0.082-0.084-0.17-0.133-0.254c-3.104-5.092-4.029-10.66-3.053-16.361l-57.649,17.763
		l-0.135,0.067c-0.074,0.021-0.147,0.04-0.221,0.063c-6.438,1.963-9.927,7.418-7.792,12.183c2.134,4.765,9.083,7.035,15.521,5.071
		c0.666-0.202,1.297-0.445,1.897-0.717l53.069-16.186C515.799,183.539,515.411,183.167,515.096,182.765z"/>
	<g>
		<path fill="#494482" d="M515.096,182.765l-0.038,0.013c-0.06-0.09-0.128-0.175-0.187-0.266c-0.035-0.055-0.062-0.111-0.096-0.167
			c-0.019-0.028-0.044-0.051-0.062-0.079c-0.053-0.082-0.084-0.17-0.133-0.254c-1.024-1.68-1.789-3.417-2.349-5.188
			c0.435,2.567,1.329,5.065,2.682,7.467l1.304-0.397C515.799,183.539,515.411,183.167,515.096,182.765z"/>
		<path fill="#7B7AC1" d="M445.851,195.955c-0.057-3.937,3.215-7.801,8.415-9.387c0.073-0.022,0.146-0.042,0.22-0.063l0.136-0.067
			l56.575-17.432c0.042-1.112,0.139-2.23,0.332-3.355l-57.649,17.763l-0.135,0.067c-0.074,0.021-0.147,0.04-0.221,0.063
			c-6.438,1.963-9.927,7.418-7.792,12.183C445.766,195.806,445.813,195.878,445.851,195.955z"/>
	</g>
	
		<ellipse transform="matrix(0.9285 -0.3713 0.3713 0.9285 -38.2582 183.8502)" fill="#313059" cx="458.288" cy="191.273" rx="15.816" ry="19.962"/>
	<path opacity="0.8" fill="#7B7AC1" d="M466.731,176.422c-4.549-4.09-10.695-5.738-16.108-3.646
		c-4.271,1.65-7.231,5.215-8.445,9.679L466.731,176.422z"/>
	
		<ellipse transform="matrix(0.9285 -0.3713 0.3713 0.9285 -38.7838 183.109)" fill="#3F3F72" cx="456.101" cy="192.267" rx="15.816" ry="19.962"/>
	
		<ellipse transform="matrix(0.9285 -0.3713 0.3713 0.9285 -38.497 183.1254)" fill="#313059" cx="456.28" cy="191.529" rx="8.552" ry="10.794"/>
	<path opacity="0.8" fill="#7B7AC1" d="M461.049,183.647c-3.02-2.756-6.633-3.435-9.622-2.239c-2.358,0.942-4.19,2.135-4.587,5.729
		L461.049,183.647z"/>
	
		<ellipse transform="matrix(0.9285 -0.3713 0.3713 0.9285 -38.7812 182.7249)" fill="#494482" cx="455.098" cy="192.067" rx="8.552" ry="10.794"/>
	
		<ellipse transform="matrix(0.9285 -0.3713 0.3713 0.9285 -38.6168 182.7781)" fill="#313059" cx="455.313" cy="191.666" rx="3.055" ry="3.856"/>
	<path fill="#313059" d="M114.286,390.873c-13.742,33.543-1.096,70.137,28.246,81.73c29.343,11.604,64.271-6.191,78.011-39.732
		c13.742-33.545,1.098-70.141-28.247-81.734C162.955,339.539,128.026,357.33,114.286,390.873z"/>
	<path opacity="0.8" fill="#7B7AC1" d="M135.749,361.507c16.107-12.649,37.868-17.747,57.033-11.276
		c15.121,5.104,25.602,16.128,29.9,29.935L135.749,361.507z"/>
	<path fill="#3F3F72" d="M134.35,392.351c-12.664,31.659-2.59,65.463,22.496,75.493c25.085,10.035,55.688-7.5,68.349-39.163
		c12.663-31.662,2.59-65.463-22.495-75.495C177.614,343.154,147.011,360.688,134.35,392.351z"/>
	
		<ellipse transform="matrix(-0.9285 -0.3713 0.3713 -0.9285 194.0412 853.8255)" fill="#313059" cx="179.218" cy="408.232" rx="26.453" ry="33.388"/>
	<path opacity="0.8" fill="#7B7AC1" d="M164.469,383.853c9.339-8.521,20.515-10.621,29.761-6.923
		c7.293,2.915,12.96,6.602,14.186,17.72L164.469,383.853z"/>
	
		<ellipse transform="matrix(-0.9285 -0.3713 0.3713 -0.9285 200.4743 858.3926)" fill="#494482" cx="182.875" cy="409.896" rx="26.452" ry="33.387"/>
	<path fill="#313059" d="M173.438,405.146c-2.447,6.114-0.501,12.645,4.344,14.582c4.845,1.935,10.754-1.45,13.201-7.565
		c2.444-6.115,0.5-12.643-4.345-14.579C181.792,395.645,175.882,399.034,173.438,405.146z"/>
</g>
<g id="chair">
	<path fill="#0F0E3D" d="M497.404,676.865c3.363,17.181,12.355,31.116,20.647,31.116l245.261,0.979
		c8.292,0,14.599-0.979,18.144-32.096l22.524-157.708c5.838-31.114-14.23-30.657-22.524-30.657H484.891
		c-8.292,0-17.936-0.457-15.015,28.063L497.404,676.865z"/>
	<path fill="#030303" d="M497.404,689.317c3.363,17.181,12.017,18.546,20.31,18.546l245.598,1.098c8.292,0,16.464,0,18.144-19.644
		l22.524-157.435c5.838-31.113-14.23-30.383-22.524-30.383H484.891c-8.292,0-17.936-0.73-15.015,27.789L497.404,689.317z"/>
	<path fill="#1B1B6B" d="M781.456,488.5H484.891c-8.292,0-11.471,1.28-15.015,10.536l0.606,1.415
		c-0.127-7.23,8.168-6.951,15.426-6.951h294.374c7.192,0,20.44,1.435,23.396,7.474l0.303-0.96
		C798.879,489.063,789.75,488.5,781.456,488.5z"/>
</g>
<g id="frame">
	<path fill="#030303" d="M100,74.5v634h1089v-634H100z M1119.461,308.863l-15.348,50.886l21.909,46.435l-6.587,92.205l16.362,97.969
		l-76.979,21.51l-28.191,48.678l-85.012-36.225l-63.633,36.225l-45.04-34.039L816.566,684.5H336.591l-82.637-37.277l-61.917,10.227
		l18.358-61.109l-45.927,8.766l11.376-71.012l-46.965-32.826l13.651-28.665l-22.122-93.591l36.521-139.538l-21.183-52.336
		l-15.339-65.621l39.519-21.802l32.108,32.006l63.729-32.006l73.875,31.642L489.414,103.5h182.254l133.361,24.457l122.475-6.548
		l50.941,21.856l82.637-21.775l20.376,44.149l71.407-61.416l-26.694,100.352l7.012,42.924l19.796,15.063l-17.184,0.93l-2.612-15.992
		l-47.128-35.858L1119.461,308.863z"/>
</g>
<g id="signature">
	
		<line fill="#FFFFFF" stroke="#FFFFFF" stroke-width="5.6601" stroke-linecap="round" stroke-miterlimit="10" x1="1110.66" y1="675.906" x2="1138.061" y2="630.697"/>
	<polyline fill="none" stroke="#FFFFFF" stroke-width="5.6601" stroke-linecap="round" stroke-miterlimit="10" points="
		1146.361,655.281 1106.741,644.281 1131.879,677.72 	"/>
	<circle fill="#FFFFFF" cx="1132.021" cy="689.182" r="2.864"/>
</g>
</svg>
